{"title":"Our.Times.2015.BRRip.480p.x264.AAC-VYTO [P2PDL]","uid":13114714,"size":504852346,"categoryP":"video","categoryS":"movies","magnet":"?xt=urn:btih:69e1f52a1dea4756412add6da3b3ee3484482395&amp;dn=Our.Times.2015.BRRip.480p.x264.AAC-VYTO+%5BP2PDL%5D&amp;tr=udp%3A%2F%2Ftracker.leechers-paradise.org%3A6969&amp;tr=udp%3A%2F%2Fzer0day.ch%3A1337&amp;tr=udp%3A%2F%2Fopen.demonii.com%3A1337&amp;tr=udp%3A%2F%2Ftracker.coppersurfer.tk%3A6969&amp;tr=udp%3A%2F%2Fexodus.desync.com%3A6969","seeders":2,"leechers":0,"uploader":"VYTOP2PDL","files":7,"time":1451552391,"description":"____    ____ ____    ____ .___________.  ______   \r\n     /   /      /   / |           | /  __    \r\n    /   /      /   /  `---|  |----`|  |  |  | \r\n        /     _    _/       |  |     |  |  |  | \r\n       /        |  |         |  |     |  `--'  | \r\n    __/         |__|         |__|      ______/  \r\n                                                  \r\nPresenting Small Encodes with quality for years!\r\n                                                                                                   \r\n                                                                                                   \r\n\r\nOur.Times.2015.BRRip.480p.x264.AAC-VYTO\r\n\r\n\r\nGenre: Romance  \nhttp://www.imdb.com/title/tt4967094/\r\n\r\n\r\nFormat                                   : MPEG-4\r\nFile size                                : 471 MiB\r\nDuration                                 : 2h 14mn\r\nOverall bit rate                         : 492 Kbps\r\n\r\nVideo\r\nFormat                                   : AVC\r\nBit rate                                 : 462 Kbps\r\nWidth                                    : 720 pixels\r\nHeight                                   : 304 pixels\r\nDisplay aspect ratio                     : 2.35:1\r\nFrame rate mode                          : Constant\r\nFrame rate                               : 24.000 fps\r\nBit depth                                : 8 bits\r\nStream size                              : 437 MiB (93%)\r\nWriting library                          : x264\r\n\r\nAudio\r\nFormat                                   : AAC\r\nBit rate mode                            : Variable\r\nBit rate                                 : 32.0 Kbps\r\nChannel(s)                               : 2 channels\r\nChannel positions                        : Front: L R \r\nSampling rate                            : 48.0 KHz\r\nStream size                              : 30.7 MiB (7%)\r\nLanguage                                 : Chinese\r\n\r\nSubtitle                                 : Yes (English)\r\n\r\nScreen Shots: (Click to view)\r\n \nhttp://ititli.com/Sp \nhttp://ititli.com/SD \nhttp://ititli.com/Sa \nhttp://ititli.com/Sb \nhttp://ititli.com/Sz \nhttp://ititli.com/SI \nhttp://ititli.com/SO \nhttp://ititli.com/Z9 \nhttp://ititli.com/ZX\r\n\r\n----------------------------------------------------------------------------------------------------\r\n\r\n\r\nEncoder Notes: Looking For Early Access To Anything You Can Provide WEBDL, DVDScr, DVDR, BluRay,\r\nDirect Audio, Music Releases and Seedboxes. If You Got anything to offer please contact us.\r\n\r\nSupport us by donating BC - 1FgwdzPsd1y25Gea8wP1qni35uGCtmkRCD\r\n\r\nSend some love!\r\nFind us and join us!","torrent":{"xt":"urn:btih:69e1f52a1dea4756412add6da3b3ee3484482395","amp;dn":"Our.Times.2015.BRRip.480p.x264.AAC-VYTO+%5BP2PDL%5D","amp;tr":["udp%3A%2F%2Ftracker.leechers-paradise.org%3A6969","udp%3A%2F%2Fzer0day.ch%3A1337","udp%3A%2F%2Fopen.demonii.com%3A1337","udp%3A%2F%2Ftracker.coppersurfer.tk%3A6969","udp%3A%2F%2Fexodus.desync.com%3A6969"],"infoHash":"69e1f52a1dea4756412add6da3b3ee3484482395","infoHashBuffer":{"type":"Buffer","data":[105,225,245,42,29,234,71,86,65,42,221,109,163,179,238,52,132,72,35,149]},"announce":[],"urlList":[]}}